<?xml version="1.0" encoding="utf-8"?>
<!-- Generator: Adobe Illustrator 24.3.2, SVG Export Plug-In . SVG Version: 6.00 Build 0)  -->
<svg version="1.1" id="Layer_1" xmlns="http://www.w3.org/2000/svg" xmlns:xlink="http://www.w3.org/1999/xlink" x="0px" y="0px"
	 viewBox="0 0 54 54" style="enable-background:new 0 0 54 54;" xml:space="preserve">
<style type="text/css">
	.st0{fill:#6B7AFE;}
	.st1{fill:#FFFFFF;}
	.st2{fill:#6B7AFE;stroke:#FFFFFF;stroke-width:0.5;stroke-miterlimit:10;}
	.st3{fill:#6B7AFE;stroke:#FFFFFF;stroke-miterlimit:10;}
	.st4{fill:none;stroke:#6B7AFE;stroke-width:0.5;stroke-miterlimit:10;}
	.st5{fill:#FFFFFF;stroke:#FFFFFF;stroke-width:0.15;stroke-miterlimit:10;}
	.st6{fill:#6B7AFE;stroke:#FDFDFF;stroke-width:0.5;stroke-miterlimit:10;}
	.st7{fill:#6B7AFE;stroke:#6B7AFE;stroke-width:1.25;stroke-miterlimit:10;}
	.st8{opacity:0.2;fill:none;stroke:#030303;stroke-width:0.75;stroke-miterlimit:10;}
</style>
<g>
	<path class="st0" d="M34.25,24.67h10.92v2.43H34.25V24.67z"/>
	<path class="st0" d="M34.25,28.25h10.92v2.43H34.25V28.25z"/>
	<path class="st0" d="M34.25,33.05c0,0.69,0.52,1.21,1.21,1.21h8.5c0.69,0,1.21-0.52,1.21-1.21v-1.21H34.25L34.25,33.05z"/>
	<path class="st0" d="M24.02,29.93c2.08,0.46,4.33,0.92,6.3,1.73c1.1,0.4,1.62,1.56,1.21,2.66c-0.4,1.16-1.56,1.27-2.08,1.33
		c-1.39,0.17-2.43,0.12-3.76-0.06c-0.4-0.06-0.81,0.29-0.81,0.69c0,0.35,0.29,0.64,0.64,0.69c3.41,0.46,6.88,0,10.17-1.5
		c-1.21-0.12-2.66,0.35-2.66-0.58V22.82L29.63,16h-1.1v3.41c0,0.35-0.29,0.58-0.64,0.58s-0.58-0.29-0.58-0.58V16h-1.79v7.05
		c0,0.35-0.29,0.64-0.58,0.64c-0.35,0-0.64-0.29-0.64-0.64l0-7.05h-1.04c-0.81,1.56-4.45,8.61-6.18,13.41
		C19.52,29.12,21.37,29.35,24.02,29.93L24.02,29.93z M29.46,26.23h1.21v1.21h-1.21V26.23z M25.82,26.23h1.21v1.21h-1.21V26.23z
		 M22.17,26.23h1.21v1.21h-1.21V26.23z"/>
	<path class="st0" d="M43.96,17.45h-8.5c-0.69,0-1.21,0.52-1.21,1.21v1.21h10.92v-1.21C45.17,17.97,44.65,17.45,43.96,17.45
		L43.96,17.45z"/>
	<path class="st0" d="M34.25,21.03h10.92v2.43H34.25V21.03z"/>
	<path class="st0" d="M38.36,35.88c-0.29-0.12-0.64-0.06-0.92,0.12c-3.76,2.02-7.97,2.77-12.08,2.25c-0.98-0.12-1.68-0.92-1.68-1.91
		c0-1.16,0.98-2.02,2.14-1.91c1.33,0.17,2.2,0.17,3.53,0.06c0.81-0.12,0.98-0.29,1.1-0.52c0.17-0.4,0.06-0.92-0.52-1.16
		c-1.73-0.69-3.58-1.16-6.13-1.68c-5.89-1.21-7.28-0.46-9.82,0.58v9.19c0.46-0.12,1.62-0.75,3.24-0.35
		c1.73,0.4,10.4,2.14,12.31,1.68c1.16-0.29,7.74-3.81,8.55-4.68c0.64-0.64,0.87-1.04,0.81-1.27C38.82,36.11,38.59,35.94,38.36,35.88
		L38.36,35.88z"/>
	<path class="st0" d="M12.75,29.87H9.98c-0.69,0-1.21,0.52-1.21,1.21v10.58c0,0.69,0.52,1.21,1.21,1.21h2.77V29.87L12.75,29.87z"/>
	<path class="st0" d="M23.33,14.79c8.5-0.06,5.55,0,6.18,0l0.58-2.2c0.12-0.4-0.29-0.75-0.69-0.58h-0.06
		c-0.87,0.4-1.39-0.29-2.77-0.87c-0.12-0.06-0.29-0.06-0.4,0c-1.39,0.58-1.96,1.27-2.77,0.87c-0.35-0.17-0.81,0.17-0.64,0.58
		L23.33,14.79z"/>
</g>
<g>
	<circle class="st8" cx="26.97" cy="26.99" r="26"/>
</g>
</svg>
